<?xml version="1.0" encoding="utf-8"?>
<!-- Generator: Adobe Illustrator 24.1.2, SVG Export Plug-In . SVG Version: 6.00 Build 0)  -->
<svg version="1.1" id="Calque_1" xmlns="http://www.w3.org/2000/svg" xmlns:xlink="http://www.w3.org/1999/xlink" x="0px" y="0px"
	 viewBox="0 0 1366 768" style="enable-background:new 0 0 1366 768;" xml:space="preserve">
<style type="text/css">
	.st0{opacity:0.66;fill:url(#SVGID_1_);}
	.st1{fill:url(#SVGID_2_);}
	.st2{fill:#74B9FF;}
	.st3{fill:#FBC23B;}
	.st4{opacity:0.34;fill:#2EB543;}
	.st5{fill:#EAB543;}
	.st6{fill:#FFEA8D;}
	.st7{opacity:0.09;fill:#FFFFFF;}
	.st8{opacity:0.1;fill:#FFFFFF;}
	.st9{opacity:0.14;fill:#FFFFFF;}
	.st10{fill:#D8AEAD;}
</style>
<linearGradient id="SVGID_1_" gradientUnits="userSpaceOnUse" x1="683.7405" y1="467.7464" x2="683.1609" y2="55.1876">
	<stop  offset="0" style="stop-color:#CAECFB"/>
	<stop  offset="0.2965" style="stop-color:#A9E1FA"/>
	<stop  offset="0.4644" style="stop-color:#9CDCF9"/>
</linearGradient>
<path class="st0" d="M1366.98,82.33c-0.09-1.16-0.16-2.32-0.2-3.48c-0.09-2.84-0.19-5.7-0.27-8.58c-0.28-0.12-0.47-0.22-0.51-0.28
	c-0.3-0.49-0.05-1.04,0.46-1.61c-0.2-8.03-0.25-16.13,0.28-24.03c-0.25-0.03-0.5-0.03-0.74,0.01V0H0l-0.51,3.42
	c0.25,0.61,0.39,1.26,0.39,1.9v2.64c0,0.71-0.17,1.4-0.45,2.02c0.14,5.13,0.36,10.25,0.46,15.38c0.12,5.98,0.87,11.93-0.53,17.8
	c0.76,8.6,0.73,17.16,0.28,25.72c0.02,0.17,0.04,0.35,0.04,0.54c0.17,6.04,0.02,12.07-0.17,18.1c0.55,1.35,0.54,2.96-0.03,4.3
	c0.13,1.47,0.19,2.93,0.25,4.25c0.2,4.36,0.1,8.76-0.27,13.12C-0.2,109.2,0,109.21,0,109.22v3.21c0.2,3.54,0.53,7.38,0.02,10.9
	c0.1,0.38,0.16,0.77,0.16,1.15c0,0.44-0.07,0.85-0.17,1.24V492h1366V82.5C1365.8,82.51,1366.22,82.44,1366.98,82.33z"/>
<radialGradient id="SVGID_2_" cx="1484.0033" cy="501.9334" r="2.4134" gradientUnits="userSpaceOnUse">
	<stop  offset="0" style="stop-color:#FFFFFF"/>
	<stop  offset="0.0207" style="stop-color:#FFFFF2"/>
	<stop  offset="0.0799" style="stop-color:#FFFFD3"/>
	<stop  offset="0.147" style="stop-color:#FFFFB7"/>
	<stop  offset="0.2227" style="stop-color:#FFFFA1"/>
	<stop  offset="0.3111" style="stop-color:#FFFF90"/>
	<stop  offset="0.4205" style="stop-color:#FFFF85"/>
	<stop  offset="0.574" style="stop-color:#FFFF7E"/>
	<stop  offset="1" style="stop-color:#FFFF7C"/>
</radialGradient>
<circle class="st1" cx="797" cy="250" r="86"/>
<rect y="492" class="st2" width="1366" height="276"/>
<path class="st3" d="M0,696"/>
<path class="st4" d="M1195.91,418.44l-15.09,5.95v-5.95l-37.71,14.14l7.54-11.16c0,0-48,10.42-59.66,26.04
	c10.97-24.55,18.51-38.69,42.51-49.11c-4.8,0-10.29,0-14.4,0.74c4.11-7.44,30.21-16.03,45.94-14.14c-8.23-2.98-14.4-4.46-14.4-4.46
	l23.31-2.98c0,0-11.66-8.18-17.83-9.67c-6.17-1.49,6.17-0.74,9.6-0.74c1.37-2.98-39.77-25.3-51.43-23.81
	c-11.66,1.49,34.97-14.14,50.06,0c-7.54-8.93-6.17-8.93-8.91-9.67c10.29-2.23,34.29,13.39,38.4,20.83
	c-1.37-3.72-8.23-11.16-8.23-11.16l6.17,3.72l-0.69-5.21l4.8,4.46c0,0-5.49-31.99-17.14-40.92c9.6,0,24,12.65,28.11,25.3
	c0-4.46,0-5.21-0.69-9.67c2.74,1.49,10.97,22.32,10.97,33.48c2.74-8.18,8.91-26.79,12.34-29.76l-1.37,10.42
	c0,0,9.6-26.04,15.09-27.53l-0.69,7.44c0,0,19.89-17.86,29.49-14.88c-10.29,8.18-34.29,53.57-34.29,53.57s21.26-6.7,26.06-5.21
	c-5.49,5.21-3.43,2.23-5.49,5.21c13.03-2.98,30.86-8.18,37.03-5.21c-4.11,2.98-12.34,5.21-12.34,5.21c8.91-1.49,39.09,6.7,48,20.09
	c-10.29,0-42.51-2.23-54.86,3.72c7.54,3.72,10.29,4.46,9.6,5.21c-0.69,0.74-37.03,2.98-37.03,2.98l2.06,2.98l-10.29,2.23
	c0,0,26.06,17.11,32.23,23.07c-8.23-2.98-19.89-5.21-15.77-4.46c4.11,0.74,36.34,26.79,35.66,38.69
	c-4.8-2.98-21.94-12.65-13.03-8.18c8.91,4.46,21.26,45.39,15.77,63.99c-9.6-17.11-33.6-53.57-39.77-52.08
	c2.06,3.72,2.06,13.39,2.06,13.39l-28.11-36.46v6.7L1211,419.92L1195.91,418.44z"/>
<path class="st5" d="M1029,655c0,0,14-328-20-446c16,0,14-3,22-1c38,144,46,397,37,433C1047,650,1029,655,1029,655z"/>
<path class="st4" d="M1031,207l22,8v-8l55,19l-11-15c0,0,70,14,87,35c-16-33-27-52-62-66c7,0,15,0,21,1c-6-10-44.05-21.55-67-19
	c12-4,21-6,21-6l-34-4c0,0,17-11,26-13s-9-1-14-1c-2-4,58-34,75-32s-51-19-73,0c11-12,9-12,13-13c-15-3-50,18-56,28c2-5,12-15,12-15
	l-9,5l1-7l-7,6c0,0,8-43,25-55c-14,0-35,17-41,34c0-6,0-7,1-13c-4,2-16,30-16,45c-4-11-13-36-18-40l2,14c0,0-14-35-22-37l1,10
	c0,0-29-24-43-20c15,11,50,72,50,72s-31-9-38-7c8,7,5,3,8,7c-19-4-45-11-54-7c6,4,18,7,18,7c-13-2-57,9-70,27c15,0,62-3,80,5
	c-11,5-15,6-14,7s54,4,54,4l-3,4l15,3c0,0-38,23-47,31c12-4,29-7,23-6s-53,36-52,52c7-4,32-17,19-11s-31,61-23,86c14-23,49-72,58-70
	c-3,5-3,18-3,18l41-49v9l27-21L1031,207z"/>
<path class="st5" d="M1199.13,660c0,0-8.31-176.45,11.87-239.93c-9.49,0-8.31-1.61-13.05-0.54C1175.4,497,1170.66,633.1,1176,652.47
	C1188.45,657.31,1199.13,660,1199.13,660z"/>
<path class="st6" d="M0,651c13.68-15.98,36.84-38.59,71-52c78.4-30.78,136.43,17.68,246,41c123.69,26.33,232.34,3.46,320-15
	c123.56-26.01,135.71-54.79,217-51c94.31,4.4,123.59,45.26,214,67c66.14,15.9,164.18,21.37,298-31v158H0L0,651z"/>
<path class="st7" d="M1182.13,503.99c-58.06,0.68-87.12,1.68-87.13,3.01c-0.01,1.32,28.67,2.96,86.01,4.93
	c0.02-0.16,0.05-0.32,0.08-0.47c0.06-0.56,0.12-1.13,0.19-1.69c0.02-0.4,0.08-0.8,0.18-1.19c0.16-1.03,0.35-2.06,0.54-3.08
	C1181.98,504.99,1182.02,504.48,1182.13,503.99z"/>
<path class="st7" d="M1366,511v-8c-68.61,0.12-124.17,0.39-166.72,0.8c0.04,2.91-0.09,5.82-0.37,8.72
	c14.79,0.48,31.14,0.97,49.09,1.48c0,0,7,1,7,3s-11,3-11,5s122,3,122,3v-8c0,0-26,0-32-3S1366,511,1366,511z"/>
<path class="st8" d="M17,534c-0.04-2.99,113.56-9.44,250-7c91.83,1.64,175.06,6.97,175,10c-0.06,3.04-83.98,3.12-84,6
	c-0.02,3.12,98.01,4.82,98,8c0,1.7-27.95,2.39-135,6c-54.54,1.84-98.69,3.39-99,0c-0.27-2.96,33.1-6.16,33-10
	C254.72,536.77,17.06,538.32,17,534z"/>
<path class="st9" d="M614,528c49.26-10.05,96.51-8.91,126-8c30.69,0.95,61.59,2.25,99,5c28.91,2.12,50.03,3.68,50,5
	c-0.09,3.94-187.96,1.65-188,4c-0.04,2.21,165.03,5.77,165,9c-0.02,2.17-74.36-0.28-187,8c-47.59,3.5-106.87,9.27-107,8
	c-0.15-1.43,75.33-9.57,75-15c-0.27-4.47-51.67-3.52-52-9C594.82,531.98,610.27,528.76,614,528z"/>
<path class="st10" d="M237.04,561.17c0,0,3.28-7.22-4.6-9.85c-7.22,7.88-8.54,9.85-8.54,9.85s-1.93,2.25-2.28,4.08
	c-0.35,1.83,0.97,9.05,1.62,11.02c0.66,1.97,1.97,1.97,1.97,1.97s0,0,0.66,0.66c-4.6,1.97-1.97,7.88,0,13.13
	c-1.31,2.63-2.63,5.91-1.97,8.54c0.66,2.63,2.63,9.19,4.6,9.85s-5.25-0.66-5.91,0c-0.66,0.66-3.28,1.97-3.94,3.28
	c0,1.97-0.66,6.57-0.66,6.57s1.26,1.7,3.28,0c1.42-1.2,3.94-4.6,3.94-4.6s3.94,1.31,5.91-1.97c1.97,1.97,1.97,1.97,1.97,1.97
	l-5.25,1.31c0,0-3.94,5.25-3.28,7.22c0,2.63,0.66,3.28,3.28,1.31c2.63-1.97,3.28-4.6,3.28-5.25c1.97,0,3.28,0,4.6-2.63
	c1.97,1.31,2.63,1.97,2.63,1.97l-4.6,2.63c0,0-1.97,1.31-1.97,1.97s0,5.91,1.97,7.22c0.66,1.31,1.97,0.66,2.63,0
	c1.31-0.66,1.97-4.6,1.31-6.57c1.97,0,2.63-2.63,3.28-3.94c2.63,0.66,15.1,4.6,17.73,3.94c0,1.97-1.31,3.94,0.66,5.25
	c-1.31,3.94-2.63,5.25,0,7.88c3.94-1.97,7.22-5.91,5.25-7.22c0-1.97-2.63-5.91-2.63-5.91l1.97-0.66l1.97,3.94l1.97,0.66
	c-0.66,3.28-1.97,5.25,2.63,8.54c1.97-2.63,2.63-7.88,1.97-9.19c-0.66-1.31-3.94-4.6-3.94-4.6l1.97-0.66c0,0,0.66,2.63,1.31,2.63
	c1.31,0.66,3.28,1.97,3.28,1.97s0,6.57,3.28,7.22c3.28-7.22,5.25-7.88,0.66-11.82c-3.94-0.66-5.25-1.31-5.25-1.31
	c7.22-4.6,11.16-7.88,10.51-15.1c5.91-5.25,9.19-9.85,6.57-12.48c8.54-4.6,13.13-11.82,7.88-20.36c-0.66-5.91-0.66-9.47-5.91-7.36
	c-3.28,2.77-4.6,4.74-4.6,6.05c0.66,1.31,2.63,3.28,1.31,4.6c-0.66,1.31,0.66,2.63,0.66,2.63c-0.66,1.97-1.31,2.63-1.31,2.63
	c-3.94-3.28-4.6-5.91-3.28-11.16c-1.31-0.66-5.25,1.31-7.22,6.57c-1.97,5.25,4.6,10.51,5.25,11.16s1.31,2.63,1.31,2.63
	c-4.6,0.66-5.25,6.57-4.6,11.82c-0.66,0.66-0.66,0.66-0.66,0.66s-3.94-1.31-4.6-2.63c-1.97-4.6-1.97-11.16-3.94-11.82
	c-1.97-1.97-4.6-3.94-9.19-0.66c-2.63,2.63-2.63,3.28-2.63,3.28c-1.97,1.31-3.94,0.66-4.6-1.97c-0.66-2.63-0.66-4.6-2.63-5.91
	s-5.91-2.63-9.19,0.66c-2.63,3.94-6.57,8.54-7.88,7.88c-1.97,0-3.28,0-3.94,0c3.28-7.88,4.6-11.82,0.66-13.79
	c0,0,2.63-1.31,2.63-1.97c4.6-1.31,9.19-3.28,9.19-6.57c0-3.28,0-9.19-2.63-9.85c-1.31,0.66-1.31,0-1.31,2.63
	c-1.31,3.94-3.94,5.25-7.22,5.91c0-1.31,0-2.63,1.31-3.28c0.66-1.97,1.97-4.6,3.28-3.94C237.7,557.89,237.04,561.17,237.04,561.17z"
	/>
</svg>
